<mxfile host="app.diagrams.net" modified="2023-07-06T07:53:08.435Z" agent="Mozilla/5.0 (Windows NT 10.0; Win64; x64) AppleWebKit/537.36 (KHTML, like Gecko) Chrome/114.0.0.0 Safari/537.36" version="21.5.2" etag="1fINyAbIqEG5N5__lLvI" type="device">
  <diagram id="8TbhF2zVDpWQXrpQkvQu" name="Page-1">
    <mxGraphModel dx="1687" dy="936" grid="1" gridSize="10" guides="1" tooltips="1" connect="1" arrows="1" fold="1" page="1" pageScale="1" pageWidth="827" pageHeight="1169" math="0" shadow="0">
      <root>
        <mxCell id="0" />
        <mxCell id="1" parent="0" />
        <mxCell id="Xl8oOc8ApXwRleviQ_-p-91" style="edgeStyle=orthogonalEdgeStyle;rounded=0;orthogonalLoop=1;jettySize=auto;html=1;entryX=0.45;entryY=-0.027;entryDx=0;entryDy=0;entryPerimeter=0;endArrow=block;endFill=0;" edge="1" parent="1" source="Xl8oOc8ApXwRleviQ_-p-1" target="Xl8oOc8ApXwRleviQ_-p-81">
          <mxGeometry relative="1" as="geometry" />
        </mxCell>
        <mxCell id="Xl8oOc8ApXwRleviQ_-p-1" value="Owner" style="swimlane;fontStyle=1;align=center;verticalAlign=top;childLayout=stackLayout;horizontal=1;startSize=26;horizontalStack=0;resizeParent=1;resizeParentMax=0;resizeLast=0;collapsible=1;marginBottom=0;whiteSpace=wrap;html=1;" vertex="1" parent="1">
          <mxGeometry x="1081" y="280" width="160" height="34" as="geometry" />
        </mxCell>
        <mxCell id="Xl8oOc8ApXwRleviQ_-p-3" value="" style="line;strokeWidth=1;fillColor=none;align=left;verticalAlign=middle;spacingTop=-1;spacingLeft=3;spacingRight=3;rotatable=0;labelPosition=right;points=[];portConstraint=eastwest;strokeColor=inherit;" vertex="1" parent="Xl8oOc8ApXwRleviQ_-p-1">
          <mxGeometry y="26" width="160" height="8" as="geometry" />
        </mxCell>
        <mxCell id="Xl8oOc8ApXwRleviQ_-p-90" style="edgeStyle=orthogonalEdgeStyle;rounded=0;orthogonalLoop=1;jettySize=auto;html=1;entryX=0.5;entryY=1;entryDx=0;entryDy=0;endArrow=block;endFill=0;" edge="1" parent="1" source="Xl8oOc8ApXwRleviQ_-p-8" target="Xl8oOc8ApXwRleviQ_-p-81">
          <mxGeometry relative="1" as="geometry" />
        </mxCell>
        <mxCell id="Xl8oOc8ApXwRleviQ_-p-8" value="Veterinary" style="swimlane;fontStyle=1;align=center;verticalAlign=top;childLayout=stackLayout;horizontal=1;startSize=26;horizontalStack=0;resizeParent=1;resizeParentMax=0;resizeLast=0;collapsible=1;marginBottom=0;whiteSpace=wrap;html=1;" vertex="1" parent="1">
          <mxGeometry x="1090" y="531" width="160" height="34" as="geometry" />
        </mxCell>
        <mxCell id="Xl8oOc8ApXwRleviQ_-p-13" value="" style="line;strokeWidth=1;fillColor=none;align=left;verticalAlign=middle;spacingTop=-1;spacingLeft=3;spacingRight=3;rotatable=0;labelPosition=right;points=[];portConstraint=eastwest;strokeColor=inherit;" vertex="1" parent="Xl8oOc8ApXwRleviQ_-p-8">
          <mxGeometry y="26" width="160" height="8" as="geometry" />
        </mxCell>
        <mxCell id="Xl8oOc8ApXwRleviQ_-p-109" style="edgeStyle=orthogonalEdgeStyle;rounded=0;orthogonalLoop=1;jettySize=auto;html=1;entryX=0.455;entryY=-0.018;entryDx=0;entryDy=0;entryPerimeter=0;endArrow=none;endFill=0;" edge="1" parent="1" source="Xl8oOc8ApXwRleviQ_-p-15" target="Xl8oOc8ApXwRleviQ_-p-36">
          <mxGeometry relative="1" as="geometry" />
        </mxCell>
        <mxCell id="Xl8oOc8ApXwRleviQ_-p-15" value="Animal" style="swimlane;fontStyle=1;align=center;verticalAlign=top;childLayout=stackLayout;horizontal=1;startSize=26;horizontalStack=0;resizeParent=1;resizeParentMax=0;resizeLast=0;collapsible=1;marginBottom=0;whiteSpace=wrap;html=1;" vertex="1" parent="1">
          <mxGeometry x="710" y="260" width="160" height="60" as="geometry" />
        </mxCell>
        <mxCell id="Xl8oOc8ApXwRleviQ_-p-94" style="edgeStyle=orthogonalEdgeStyle;rounded=0;orthogonalLoop=1;jettySize=auto;html=1;endArrow=none;endFill=0;" edge="1" parent="Xl8oOc8ApXwRleviQ_-p-15" source="Xl8oOc8ApXwRleviQ_-p-17">
          <mxGeometry relative="1" as="geometry">
            <mxPoint x="370" y="39" as="targetPoint" />
          </mxGeometry>
        </mxCell>
        <mxCell id="Xl8oOc8ApXwRleviQ_-p-17" value="- name: string" style="text;strokeColor=none;fillColor=none;align=left;verticalAlign=top;spacingLeft=4;spacingRight=4;overflow=hidden;rotatable=0;points=[[0,0.5],[1,0.5]];portConstraint=eastwest;whiteSpace=wrap;html=1;" vertex="1" parent="Xl8oOc8ApXwRleviQ_-p-15">
          <mxGeometry y="26" width="160" height="26" as="geometry" />
        </mxCell>
        <mxCell id="Xl8oOc8ApXwRleviQ_-p-20" value="" style="line;strokeWidth=1;fillColor=none;align=left;verticalAlign=middle;spacingTop=-1;spacingLeft=3;spacingRight=3;rotatable=0;labelPosition=right;points=[];portConstraint=eastwest;strokeColor=inherit;" vertex="1" parent="Xl8oOc8ApXwRleviQ_-p-15">
          <mxGeometry y="52" width="160" height="8" as="geometry" />
        </mxCell>
        <mxCell id="Xl8oOc8ApXwRleviQ_-p-29" value="MedicalCondition" style="swimlane;fontStyle=1;align=center;verticalAlign=top;childLayout=stackLayout;horizontal=1;startSize=26;horizontalStack=0;resizeParent=1;resizeParentMax=0;resizeLast=0;collapsible=1;marginBottom=0;whiteSpace=wrap;html=1;" vertex="1" parent="1">
          <mxGeometry x="290" y="499" width="160" height="86" as="geometry" />
        </mxCell>
        <mxCell id="Xl8oOc8ApXwRleviQ_-p-31" value="- commonName: string" style="text;strokeColor=none;fillColor=none;align=left;verticalAlign=top;spacingLeft=4;spacingRight=4;overflow=hidden;rotatable=0;points=[[0,0.5],[1,0.5]];portConstraint=eastwest;whiteSpace=wrap;html=1;" vertex="1" parent="Xl8oOc8ApXwRleviQ_-p-29">
          <mxGeometry y="26" width="160" height="26" as="geometry" />
        </mxCell>
        <mxCell id="Xl8oOc8ApXwRleviQ_-p-32" value="- scientificName: string" style="text;strokeColor=none;fillColor=none;align=left;verticalAlign=top;spacingLeft=4;spacingRight=4;overflow=hidden;rotatable=0;points=[[0,0.5],[1,0.5]];portConstraint=eastwest;whiteSpace=wrap;html=1;" vertex="1" parent="Xl8oOc8ApXwRleviQ_-p-29">
          <mxGeometry y="52" width="160" height="26" as="geometry" />
        </mxCell>
        <mxCell id="Xl8oOc8ApXwRleviQ_-p-34" value="" style="line;strokeWidth=1;fillColor=none;align=left;verticalAlign=middle;spacingTop=-1;spacingLeft=3;spacingRight=3;rotatable=0;labelPosition=right;points=[];portConstraint=eastwest;strokeColor=inherit;" vertex="1" parent="Xl8oOc8ApXwRleviQ_-p-29">
          <mxGeometry y="78" width="160" height="8" as="geometry" />
        </mxCell>
        <mxCell id="Xl8oOc8ApXwRleviQ_-p-93" style="edgeStyle=orthogonalEdgeStyle;rounded=0;orthogonalLoop=1;jettySize=auto;html=1;entryX=0;entryY=0.5;entryDx=0;entryDy=0;endArrow=none;endFill=0;" edge="1" parent="1" source="Xl8oOc8ApXwRleviQ_-p-36" target="Xl8oOc8ApXwRleviQ_-p-8">
          <mxGeometry relative="1" as="geometry" />
        </mxCell>
        <mxCell id="Xl8oOc8ApXwRleviQ_-p-36" value="Appoitment" style="swimlane;fontStyle=1;align=center;verticalAlign=top;childLayout=stackLayout;horizontal=1;startSize=26;horizontalStack=0;resizeParent=1;resizeParentMax=0;resizeLast=0;collapsible=1;marginBottom=0;whiteSpace=wrap;html=1;" vertex="1" parent="1">
          <mxGeometry x="695" y="518" width="210" height="60" as="geometry" />
        </mxCell>
        <mxCell id="Xl8oOc8ApXwRleviQ_-p-38" value="- date: datetime" style="text;strokeColor=none;fillColor=none;align=left;verticalAlign=top;spacingLeft=4;spacingRight=4;overflow=hidden;rotatable=0;points=[[0,0.5],[1,0.5]];portConstraint=eastwest;whiteSpace=wrap;html=1;" vertex="1" parent="Xl8oOc8ApXwRleviQ_-p-36">
          <mxGeometry y="26" width="210" height="26" as="geometry" />
        </mxCell>
        <mxCell id="Xl8oOc8ApXwRleviQ_-p-41" value="" style="line;strokeWidth=1;fillColor=none;align=left;verticalAlign=middle;spacingTop=-1;spacingLeft=3;spacingRight=3;rotatable=0;labelPosition=right;points=[];portConstraint=eastwest;strokeColor=inherit;" vertex="1" parent="Xl8oOc8ApXwRleviQ_-p-36">
          <mxGeometry y="52" width="210" height="8" as="geometry" />
        </mxCell>
        <mxCell id="Xl8oOc8ApXwRleviQ_-p-96" style="edgeStyle=orthogonalEdgeStyle;rounded=0;orthogonalLoop=1;jettySize=auto;html=1;entryX=0;entryY=-0.077;entryDx=0;entryDy=0;entryPerimeter=0;endArrow=none;endFill=0;" edge="1" parent="1" source="Xl8oOc8ApXwRleviQ_-p-69" target="Xl8oOc8ApXwRleviQ_-p-17">
          <mxGeometry relative="1" as="geometry" />
        </mxCell>
        <mxCell id="Xl8oOc8ApXwRleviQ_-p-97" style="edgeStyle=orthogonalEdgeStyle;rounded=0;orthogonalLoop=1;jettySize=auto;html=1;entryX=0.5;entryY=0;entryDx=0;entryDy=0;endArrow=none;endFill=0;" edge="1" parent="1" source="Xl8oOc8ApXwRleviQ_-p-69" target="Xl8oOc8ApXwRleviQ_-p-29">
          <mxGeometry relative="1" as="geometry" />
        </mxCell>
        <mxCell id="Xl8oOc8ApXwRleviQ_-p-69" value="Race" style="swimlane;fontStyle=1;align=center;verticalAlign=top;childLayout=stackLayout;horizontal=1;startSize=26;horizontalStack=0;resizeParent=1;resizeParentMax=0;resizeLast=0;collapsible=1;marginBottom=0;whiteSpace=wrap;html=1;" vertex="1" parent="1">
          <mxGeometry x="290" y="254" width="160" height="60" as="geometry" />
        </mxCell>
        <mxCell id="Xl8oOc8ApXwRleviQ_-p-70" value="- name: string" style="text;strokeColor=none;fillColor=none;align=left;verticalAlign=top;spacingLeft=4;spacingRight=4;overflow=hidden;rotatable=0;points=[[0,0.5],[1,0.5]];portConstraint=eastwest;whiteSpace=wrap;html=1;" vertex="1" parent="Xl8oOc8ApXwRleviQ_-p-69">
          <mxGeometry y="26" width="160" height="26" as="geometry" />
        </mxCell>
        <mxCell id="Xl8oOc8ApXwRleviQ_-p-71" value="" style="line;strokeWidth=1;fillColor=none;align=left;verticalAlign=middle;spacingTop=-1;spacingLeft=3;spacingRight=3;rotatable=0;labelPosition=right;points=[];portConstraint=eastwest;strokeColor=inherit;" vertex="1" parent="Xl8oOc8ApXwRleviQ_-p-69">
          <mxGeometry y="52" width="160" height="8" as="geometry" />
        </mxCell>
        <mxCell id="Xl8oOc8ApXwRleviQ_-p-81" value="&lt;i&gt;Person&lt;/i&gt;" style="swimlane;fontStyle=1;align=center;verticalAlign=top;childLayout=stackLayout;horizontal=1;startSize=26;horizontalStack=0;resizeParent=1;resizeParentMax=0;resizeLast=0;collapsible=1;marginBottom=0;whiteSpace=wrap;html=1;" vertex="1" parent="1">
          <mxGeometry x="1400" y="320" width="160" height="112" as="geometry" />
        </mxCell>
        <mxCell id="Xl8oOc8ApXwRleviQ_-p-83" value="# name: string" style="text;strokeColor=none;fillColor=none;align=left;verticalAlign=top;spacingLeft=4;spacingRight=4;overflow=hidden;rotatable=0;points=[[0,0.5],[1,0.5]];portConstraint=eastwest;whiteSpace=wrap;html=1;" vertex="1" parent="Xl8oOc8ApXwRleviQ_-p-81">
          <mxGeometry y="26" width="160" height="26" as="geometry" />
        </mxCell>
        <mxCell id="Xl8oOc8ApXwRleviQ_-p-84" value="# adress: string" style="text;strokeColor=none;fillColor=none;align=left;verticalAlign=top;spacingLeft=4;spacingRight=4;overflow=hidden;rotatable=0;points=[[0,0.5],[1,0.5]];portConstraint=eastwest;whiteSpace=wrap;html=1;" vertex="1" parent="Xl8oOc8ApXwRleviQ_-p-81">
          <mxGeometry y="52" width="160" height="26" as="geometry" />
        </mxCell>
        <mxCell id="Xl8oOc8ApXwRleviQ_-p-85" value="# phone: string" style="text;strokeColor=none;fillColor=none;align=left;verticalAlign=top;spacingLeft=4;spacingRight=4;overflow=hidden;rotatable=0;points=[[0,0.5],[1,0.5]];portConstraint=eastwest;whiteSpace=wrap;html=1;" vertex="1" parent="Xl8oOc8ApXwRleviQ_-p-81">
          <mxGeometry y="78" width="160" height="26" as="geometry" />
        </mxCell>
        <mxCell id="Xl8oOc8ApXwRleviQ_-p-86" value="" style="line;strokeWidth=1;fillColor=none;align=left;verticalAlign=middle;spacingTop=-1;spacingLeft=3;spacingRight=3;rotatable=0;labelPosition=right;points=[];portConstraint=eastwest;strokeColor=inherit;" vertex="1" parent="Xl8oOc8ApXwRleviQ_-p-81">
          <mxGeometry y="104" width="160" height="8" as="geometry" />
        </mxCell>
        <mxCell id="Xl8oOc8ApXwRleviQ_-p-98" style="edgeStyle=orthogonalEdgeStyle;rounded=0;orthogonalLoop=1;jettySize=auto;html=1;entryX=-0.01;entryY=0.192;entryDx=0;entryDy=0;entryPerimeter=0;endArrow=none;endFill=0;" edge="1" parent="1" source="Xl8oOc8ApXwRleviQ_-p-31">
          <mxGeometry relative="1" as="geometry">
            <mxPoint x="692.9000000000001" y="550.992" as="targetPoint" />
            <Array as="points">
              <mxPoint x="510" y="551" />
              <mxPoint x="510" y="551" />
            </Array>
          </mxGeometry>
        </mxCell>
        <mxCell id="Xl8oOc8ApXwRleviQ_-p-99" value="1..*" style="text;html=1;align=center;verticalAlign=middle;resizable=0;points=[];autosize=1;strokeColor=none;fillColor=none;" vertex="1" parent="1">
          <mxGeometry x="1030" y="258" width="40" height="30" as="geometry" />
        </mxCell>
        <mxCell id="Xl8oOc8ApXwRleviQ_-p-100" value="*" style="text;html=1;align=center;verticalAlign=middle;resizable=0;points=[];autosize=1;strokeColor=none;fillColor=none;" vertex="1" parent="1">
          <mxGeometry x="880" y="260" width="30" height="30" as="geometry" />
        </mxCell>
        <mxCell id="Xl8oOc8ApXwRleviQ_-p-101" value="1" style="text;html=1;align=center;verticalAlign=middle;resizable=0;points=[];autosize=1;strokeColor=none;fillColor=none;" vertex="1" parent="1">
          <mxGeometry x="455" y="248" width="30" height="30" as="geometry" />
        </mxCell>
        <mxCell id="Xl8oOc8ApXwRleviQ_-p-102" value="*" style="text;html=1;align=center;verticalAlign=middle;resizable=0;points=[];autosize=1;strokeColor=none;fillColor=none;" vertex="1" parent="1">
          <mxGeometry x="665" y="248" width="30" height="30" as="geometry" />
        </mxCell>
        <mxCell id="Xl8oOc8ApXwRleviQ_-p-103" value="*" style="text;html=1;align=center;verticalAlign=middle;resizable=0;points=[];autosize=1;strokeColor=none;fillColor=none;" vertex="1" parent="1">
          <mxGeometry x="375" y="320" width="30" height="30" as="geometry" />
        </mxCell>
        <mxCell id="Xl8oOc8ApXwRleviQ_-p-104" value="*" style="text;html=1;align=center;verticalAlign=middle;resizable=0;points=[];autosize=1;strokeColor=none;fillColor=none;" vertex="1" parent="1">
          <mxGeometry x="375" y="468" width="30" height="30" as="geometry" />
        </mxCell>
        <mxCell id="Xl8oOc8ApXwRleviQ_-p-105" value="*" style="text;html=1;align=center;verticalAlign=middle;resizable=0;points=[];autosize=1;strokeColor=none;fillColor=none;" vertex="1" parent="1">
          <mxGeometry x="455" y="520" width="30" height="30" as="geometry" />
        </mxCell>
        <mxCell id="Xl8oOc8ApXwRleviQ_-p-106" value="*" style="text;html=1;align=center;verticalAlign=middle;resizable=0;points=[];autosize=1;strokeColor=none;fillColor=none;" vertex="1" parent="1">
          <mxGeometry x="655" y="518" width="30" height="30" as="geometry" />
        </mxCell>
        <mxCell id="Xl8oOc8ApXwRleviQ_-p-107" value="1" style="text;html=1;align=center;verticalAlign=middle;resizable=0;points=[];autosize=1;strokeColor=none;fillColor=none;" vertex="1" parent="1">
          <mxGeometry x="1060" y="510" width="30" height="30" as="geometry" />
        </mxCell>
        <mxCell id="Xl8oOc8ApXwRleviQ_-p-108" value="*" style="text;html=1;align=center;verticalAlign=middle;resizable=0;points=[];autosize=1;strokeColor=none;fillColor=none;" vertex="1" parent="1">
          <mxGeometry x="910" y="518" width="30" height="30" as="geometry" />
        </mxCell>
      </root>
    </mxGraphModel>
  </diagram>
</mxfile>
